<svg xmlns="http://www.w3.org/2000/svg" width="144" height="144" viewBox="0 0 144 144">
  <g id="Groupe_42" data-name="Groupe 42" transform="translate(-6385 11714)">
    <circle id="Ellipse_36" data-name="Ellipse 36" cx="72" cy="72" r="72" transform="translate(6385 -11714)" fill="#fff"/>
    <path id="Tracé_32" data-name="Tracé 32" d="M50.6-38.2Q64.2-6.9,67.6,0H54.9q-3.3-8-6.2-15.7l-1.1-2.8q-5.2-.1-15.6-.1t-15.6.1Q12.2-8,9.3,0H-.1L4.1-9.8q2.2-5.3,9.95-23.6T27.4-65.7a2.615,2.615,0,0,1-1.8-1.5,4.506,4.506,0,0,1-.5-2.8h9.7q1.8,0,2.3,1.1ZM45.2-25.4,39.5-39.2q-.5-1.3-3.35-8.05T31.9-58.3Q29-49.9,22.7-34.6q-3.7,8.9-3.8,9.2Z" transform="translate(6423 -11607)"/>
  </g>
</svg>
