      <svg xmlns="http://www.w3.org/2000/svg" width="821.741" height="821.741">
        <defs>
          <clipPath id="a">
            <path
              fill="none"
              d="M410.871 0c226.917 0 410.87 183.953 410.87 410.871s-183.953 410.87-410.87 410.87S0 637.788 0 410.871 183.953 0 410.871 0z"
            ></path>
          </clipPath>
        </defs>
        <circle cx="410.871" cy="410.871" r="410.871" fill="#ee9be4"></circle>
        <g clip-path="url(#a)">
          <path
            fill="#00ae91"
            d="M692.626 791.098l127.9-262.636-205.189-318.475-315.823-61.6-117.937 156.027-40.295 195.111 158.228 181.1 236.388-76.111 21.645-203.474-121.208-104.891-136.824 59.481-23.4 82.486 32.369 81.649 64.651 24.364 63.2-24.364 32.838-87.506-68.3-60.857-33.728 29.638-2.225 35.283 30.571 30.318 21.979-20.7v-19.687l-8.37-8.783-13.608 1.749-2.575 10.2 2.575 2.836 1.968-6h9.561l3.786 7.45-9.934 14.376-17.682-14.376v-11.328l19.776-21.339 37.426 27.066-25.121 53.2-54.8 5.467-24.554-62.518 29-56.559 75.473-15.633 58.463 65.411-19.847 110.987-146.956 65.733-97.982-127.554 37.842-141.159 101.223-79.383 167.73 21.93 100.047 231.5-53.387 162.868-265.809 128.7-254.041-196.9 33.714-348.1 148.7-188.008 442.54 90.294 207.449 395.744-124.994 239z"
          ></path>
        </g>
      </svg>